# xmcd
#
# Track frame offsets: 
#        183
#        30133
#        45595
#        59008
#        75620
#        90883
#        105520
#        127708
#        139983
#        157533
#        172983
#        192183
#        204795
#        219858
#        237483
#        254283
#        268258
#        283108
#        298383
#        312645
#
# Disc length: 4438 seconds
#
# Revision: 2
# Processed by: cddbd v1.5.2PL0 Copyright (c) Steve Scherf et al.
# Submitted via: ExactAudioCopy v0.99pb4
#
DISCID=11115414
DTITLE=Jane Birkin - Intégrale Des Enregistrements ''Studio''  CD 4
DYEAR=1992
DGENRE=Chanson
TTITLE0=These Foolish Things (En Duo Avec Jimmy Rowles)
TTITLE1=Être Ou Ne Pas Naître
TTITLE2=C'est La Vie Qui Veut Ca
TTITLE3=Le Couteau Dans Le Play
TTITLE4=L'Amour De Moi
TTITLE5=Une Chose Entre Autres
TTITLE6=Lost Song
TTITLE7=Physique Et Sans Issue
TTITLE8=Leur Plaisir Sans Moi
TTITLE9=Le Moi Et Le Je
TTITLE10=Et Quand Bien Même
TTITLE11=Des Ils Et Des Elles
TTITLE12=Litanie En Lituanie
TTITLE13=L'impression De Déjà Vu
TTITLE14=Asphalte
TTITLE15=Tombée Des Nues
TTITLE16=Un Amour Peut En Cacher Un Autre
TTITLE17=32 Fahrenheit
TTITLE18=Love Fifteen
TTITLE19=Amours Des Feintes
EXTD=
EXTT0=
EXTT1=
EXTT2=
EXTT3=
EXTT4=
EXTT5=
EXTT6=
EXTT7=
EXTT8=
EXTT9=
EXTT10=
EXTT11=
EXTT12=
EXTT13=
EXTT14=
EXTT15=
EXTT16=
EXTT17=
EXTT18=
EXTT19=
PLAYORDER=
